<svg width="14" height="14" viewBox="0 0 14 14" fill="none" xmlns="http://www.w3.org/2000/svg">
<path fill-rule="evenodd" clip-rule="evenodd" d="M6.33334 1.66667C3.75601 1.66667 1.66668 3.756 1.66668 6.33333C1.66668 8.91066 3.75601 11 6.33334 11C7.59064 11 8.73181 10.5028 9.57094 9.69426C9.58848 9.67144 9.60771 9.6495 9.62861 9.62859C9.64951 9.60769 9.67145 9.58847 9.69427 9.57093C10.5028 8.7318 11 7.59063 11 6.33333C11 3.756 8.91067 1.66667 6.33334 1.66667ZM11.0213 10.0785C11.8424 9.05201 12.3333 7.75001 12.3333 6.33333C12.3333 3.01962 9.64705 0.333332 6.33334 0.333332C3.01963 0.333332 0.333344 3.01962 0.333344 6.33333C0.333344 9.64704 3.01963 12.3333 6.33334 12.3333C7.75002 12.3333 9.05202 11.8424 10.0785 11.0213L12.5286 13.4714C12.789 13.7318 13.2111 13.7318 13.4714 13.4714C13.7318 13.2111 13.7318 12.7889 13.4714 12.5286L11.0213 10.0785Z" fill="#767C8F"/>
</svg>
